<svg width="28" height="25" viewBox="0 0 28 25" fill="none" xmlns="http://www.w3.org/2000/svg">
<path d="M14 0.504669C15.8317 0.504669 17.5883 1.14276 18.8835 2.27858C20.1786 3.4144 20.9062 4.9549 20.9062 6.56119C20.9062 8.16747 20.1786 9.70797 18.8835 10.8438C17.5883 11.9796 15.8317 12.6177 14 12.6177C12.1683 12.6177 10.4117 11.9796 9.11654 10.8438C7.82137 9.70797 7.09375 8.16747 7.09375 6.56119C7.09375 4.9549 7.82137 3.4144 9.11654 2.27858C10.4117 1.14276 12.1683 0.504669 14 0.504669V0.504669ZM14 15.646C21.6314 15.646 27.8125 18.3563 27.8125 21.7025V24.7307H0.1875V21.7025C0.1875 18.3563 6.36859 15.646 14 15.646Z" fill="#211F1C"/>
</svg>
