<svg width="111" height="111" viewBox="0 0 111 111" fill="none" xmlns="http://www.w3.org/2000/svg">
<path d="M99.9 56.055C99.345 56.055 98.235 56.61 97.68 57.165L92.13 62.715L103.785 74.37L109.335 68.82C110.445 67.71 110.445 65.49 109.335 64.38L102.12 57.165C101.565 56.61 101.01 56.055 99.9 56.055V56.055ZM89.355 66.045L55.5 99.345V111H67.155L101.01 77.145L89.355 66.045V66.045ZM33.3 22.2H22.2V0H33.3V22.2ZM44.4 77.7H33.3V66.6H44.4V77.7ZM55.5 22.2H44.4V0H55.5V22.2ZM77.7 0V11.1H66.6V0H77.7ZM99.9 11.1H88.8V0H99.9V11.1ZM44.4 99.9V88.8H33.3V77.7H22.2V66.6H11.1V55.5H22.2V22.2H11.1V0H0V111H44.4V99.9ZM22.2 99.9H11.1V88.8H22.2V99.9ZM111 44.4H88.8V33.3H111V44.4ZM99.9 22.2V11.1H111V22.2H99.9ZM88.8 11.1V33.3H66.6V22.2H77.7V11.1H88.8ZM44.4 88.8V77.7H55.5V55.5H33.3V33.3H55.5V44.4H66.6V55.5H77.7V44.4H88.8V50.505L72.705 66.6H66.6V72.705L50.505 88.8H44.4Z" fill="black"/>
</svg>
