<svg width="132" height="132" viewBox="0 0 132 132" fill="none" xmlns="http://www.w3.org/2000/svg">
<path d="M120 96V42H36V96H120ZM120 12C123.183 12 126.235 13.2643 128.485 15.5147C130.736 17.7652 132 20.8174 132 24V96C132 99.1826 130.736 102.235 128.485 104.485C126.235 106.736 123.183 108 120 108H36C32.8174 108 29.7652 106.736 27.5147 104.485C25.2643 102.235 24 99.1826 24 96V24C24 20.8174 25.2643 17.7652 27.5147 15.5147C29.7652 13.2643 32.8174 12 36 12H42V0H54V12H102V0H114V12H120ZM99.18 60.36L72.54 87L56.46 70.92L62.82 64.56L72.54 74.28L92.82 54L99.18 60.36V60.36ZM12 120H96V132H12C8.8174 132 5.76516 130.736 3.51472 128.485C1.26428 126.235 0 123.183 0 120V48H12V120Z" fill="black"/>
</svg>
