<svg width="66" height="120" viewBox="0 0 66 120" fill="none" xmlns="http://www.w3.org/2000/svg">
<path d="M0 80H13.2C13.2 87.2 22.242 93.3333 33 93.3333C43.758 93.3333 52.8 87.2 52.8 80C52.8 72.6667 45.936 70 31.416 66.4667C17.424 62.9333 0 58.5333 0 40C0 28.0667 9.702 17.9333 23.1 14.5333V0H42.9V14.5333C56.298 17.9333 66 28.0667 66 40H52.8C52.8 32.8 43.758 26.6667 33 26.6667C22.242 26.6667 13.2 32.8 13.2 40C13.2 47.3333 20.064 50 34.584 53.5333C48.576 57.0667 66 61.4667 66 80C66 91.9333 56.298 102.067 42.9 105.467V120H23.1V105.467C9.702 102.067 0 91.9333 0 80Z" fill="black"/>
</svg>
